<svg width="168" height="168" viewBox="0 0 168 168" fill="none" xmlns="http://www.w3.org/2000/svg">

<g id="&#226;&#154;&#153; COMPONENTS">


<g id="BookStage">
<g id="State=Rest">
<g id="free-seal" filter="url(#filter0_d_194_2029)">
<rect x="43.6228" y="12" width="104" height="104" rx="52" transform="rotate(12 43.6228 12)" fill="url(#paint0_radial_194_2029)"/>
<g id="seal-copy">
<g id="FREE">
<path id="Vector" d="M104.06 76.7051L107.844 58.9028L120.254 61.5408L119.47 65.2284L111.256 63.4824L109.04 73.9094L117.508 75.7095L116.725 79.3972L104.06 76.7051ZM107.645 69.8386L108.391 66.329L117.623 68.2913L116.877 71.8009L107.645 69.8386Z" fill="#1B1B1B"/>
<path id="Vector_2" d="M86.6897 73.013L90.4737 55.2107L102.884 57.8487L102.101 61.5363L93.8861 59.7903L91.6698 70.2173L100.139 72.0174L99.3548 75.705L86.6897 73.013ZM90.2757 66.1465L91.0217 62.6369L100.253 64.5992L99.5075 68.1088L90.2757 66.1465Z" fill="#1B1B1B"/>
<path id="Vector_3" d="M67.8547 69.0096L71.6387 51.2073L79.6497 52.9101C80.7857 53.1515 81.7592 53.6154 82.5702 54.3017C83.3982 54.9916 83.9831 55.8247 84.3249 56.8011C84.6703 57.7606 84.7276 58.7828 84.497 59.8679C84.2592 60.9869 83.7819 61.9399 83.0653 62.7267C82.3524 63.4967 81.484 64.0386 80.4604 64.3527C79.4367 64.6667 78.3484 64.7012 77.1955 64.4561L73.3044 63.6291L71.9746 69.8853L67.8547 69.0096ZM77.7222 71.107L74.9036 62.1083L79.4639 62.4131L82.656 72.1557L77.7222 71.107ZM74.0072 60.3229L77.5168 61.0689C77.9576 61.1626 78.3589 61.1504 78.7207 61.0324C79.103 60.901 79.4168 60.6753 79.662 60.3553C79.9242 60.0389 80.1039 59.6518 80.2012 59.1941C80.2985 58.7363 80.2815 58.3162 80.1501 57.9339C80.0223 57.5346 79.7833 57.2003 79.433 56.9309C79.0996 56.6651 78.6617 56.4745 78.1191 56.3592L74.991 55.6943L74.0072 60.3229Z" fill="#1B1B1B"/>
<path id="Vector_4" d="M51.1555 65.46L54.9395 47.6577L59.2629 48.5767L55.4789 66.379L51.1555 65.46ZM54.6133 59.0713L55.3809 55.46L64.5873 57.4169L63.8197 61.0282L54.6133 59.0713ZM56.1377 51.8995L56.9486 48.0848L67.1976 50.2633L66.3868 54.078L56.1377 51.8995Z" fill="#1B1B1B"/>
</g>
<g id="PAPERBACK">
<path id="Vector_5" d="M109.957 87.7883L111.304 81.45L112.365 81.6754L111.74 84.6157L114.896 82.2134L116.199 82.4903L112.814 85.0188L115.036 88.868L113.689 88.5817L111.646 85.0559L111.018 88.0138L109.957 87.7883Z" fill="#1B1B1B"/>
<path id="Vector_6" d="M104.154 86.6929C103.52 86.5582 103.006 86.3049 102.613 85.933C102.22 85.5582 101.955 85.0969 101.817 84.5492C101.682 84.0022 101.684 83.4014 101.823 82.747C101.962 82.0927 102.204 81.5431 102.55 81.0983C102.899 80.6542 103.329 80.3422 103.84 80.1624C104.351 79.9797 104.923 79.9557 105.557 80.0904C106.288 80.2457 106.858 80.5586 107.267 81.0289C107.677 81.4963 107.914 82.0605 107.979 82.7215L106.847 82.789C106.811 82.3491 106.67 81.9817 106.423 81.6869C106.177 81.3891 105.817 81.19 105.345 81.0896C104.919 80.9992 104.544 81.0191 104.219 81.1493C103.896 81.2802 103.627 81.5034 103.409 81.8191C103.195 82.1325 103.038 82.5207 102.936 82.9838C102.838 83.4474 102.822 83.8673 102.889 84.2435C102.96 84.6174 103.118 84.93 103.362 85.1812C103.606 85.4325 103.941 85.6033 104.366 85.6937C104.839 85.7942 105.248 85.7585 105.594 85.5867C105.94 85.415 106.219 85.1368 106.429 84.7522L107.436 85.2744C107.108 85.8518 106.662 86.2721 106.096 86.5354C105.532 86.7957 104.884 86.8482 104.154 86.6929Z" fill="#1B1B1B"/>
<path id="Vector_7" d="M93.3705 84.263L96.7161 78.3493L98.2699 78.6796L98.921 85.4428L97.8294 85.2107L97.2247 79.1383L97.4624 79.1888L94.4621 84.495L93.3705 84.263ZM94.776 83.1263L94.9865 82.136L98.3142 82.8433L98.1037 83.8337L94.776 83.1263Z" fill="#1B1B1B"/>
<path id="Vector_8" d="M86.3007 82.7603L87.648 76.4219L90.1613 76.9561C90.5898 77.0472 90.922 77.2083 91.1581 77.4394C91.3978 77.6682 91.5553 77.9302 91.6306 78.2253C91.7088 78.521 91.7176 78.8112 91.6571 79.0959C91.5829 79.4451 91.4363 79.7237 91.2173 79.9317C91.0012 80.1403 90.7417 80.2569 90.439 80.2815L90.4858 80.0614C90.8655 80.2372 91.1276 80.4907 91.2718 80.822C91.4191 81.1538 91.4537 81.5032 91.3757 81.87C91.2959 82.2456 91.1541 82.559 90.9505 82.8101C90.7468 83.0612 90.4858 83.2358 90.1675 83.3337C89.8521 83.4323 89.486 83.4373 89.0694 83.3488L86.3007 82.7603ZM87.5871 81.9894L89.1497 82.3215C89.3346 82.3608 89.5082 82.3594 89.6705 82.3172C89.8334 82.2721 89.9703 82.1908 90.0812 82.0733C90.1956 81.9534 90.2727 81.7996 90.3127 81.6118C90.3488 81.4416 90.3446 81.2812 90.2999 81.1306C90.2553 80.9801 90.1709 80.8502 90.0469 80.741C89.9235 80.6289 89.7635 80.552 89.5669 80.5102L87.9735 80.1715L87.5871 81.9894ZM88.184 79.1811L89.6102 79.4843C89.7627 79.5167 89.9054 79.5163 90.0382 79.4832C90.171 79.4501 90.2848 79.3838 90.3795 79.2843C90.4743 79.1849 90.5394 79.0515 90.575 78.8842C90.6218 78.6642 90.5903 78.4658 90.4807 78.2891C90.371 78.1125 90.19 77.9973 89.9376 77.9437L88.5115 77.6405L88.184 79.1811Z" fill="#1B1B1B"/>
<path id="Vector_9" d="M78.5328 81.1091L79.8801 74.7708L82.4991 75.3274C82.5607 75.3405 82.6393 75.3603 82.7349 75.3868C82.8311 75.4103 82.9187 75.4381 82.9978 75.4702C83.3527 75.604 83.6291 75.79 83.8269 76.0283C84.0276 76.2673 84.1546 76.5427 84.2079 76.8546C84.2648 77.1642 84.2561 77.4936 84.1819 77.8428C84.0721 78.3592 83.847 78.7761 83.5067 79.0932C83.1669 79.4074 82.7177 79.5512 82.159 79.5245L81.6973 79.4677L80.0642 79.1206L79.5936 81.3346L78.5328 81.1091ZM82.173 81.8829L81.4712 79.0378L82.6001 79.0293L83.3747 82.1383L82.173 81.8829ZM80.2747 78.1302L81.7889 78.4521C81.8476 78.4645 81.9143 78.4756 81.9889 78.4854C82.0635 78.4951 82.1335 78.4977 82.1988 78.4932C82.3843 78.4866 82.5387 78.4381 82.6622 78.3478C82.7886 78.2582 82.8873 78.1473 82.9583 78.0151C83.0323 77.8836 83.0836 77.7504 83.1123 77.6154C83.141 77.4804 83.1483 77.3378 83.1342 77.1876C83.1237 77.0351 83.0789 76.8922 82.9999 76.7588C82.9239 76.6261 82.8025 76.5191 82.6358 76.4376C82.5779 76.4069 82.5126 76.3823 82.4398 76.3638C82.3677 76.3423 82.3023 76.3253 82.2436 76.3129L80.7295 75.991L80.2747 78.1302Z" fill="#1B1B1B"/>
<path id="Vector_10" d="M71.4269 79.5987L72.7742 73.2603L76.8677 74.1304L76.6563 75.1251L73.6236 74.4805L73.2914 76.0431L75.796 76.5755L75.5845 77.5702L73.08 77.0379L72.6992 78.8294L75.7319 79.474L75.5205 80.4688L71.4269 79.5987Z" fill="#1B1B1B"/>
<path id="Vector_11" d="M63.8482 77.9878L65.1955 71.6494L67.8145 72.2061C67.8761 72.2192 67.9547 72.239 68.0503 72.2654C68.1465 72.2889 68.2341 72.3168 68.3132 72.3489C68.6681 72.4826 68.9445 72.6687 69.1423 72.907C69.343 73.1459 69.47 73.4214 69.5233 73.7333C69.5802 74.0428 69.5715 74.3722 69.4973 74.7214C69.4237 75.0677 69.2976 75.3721 69.1191 75.6348C68.9413 75.8945 68.712 76.0926 68.4315 76.2293C68.1539 76.3666 67.8272 76.4244 67.4515 76.4028C67.3668 76.3971 67.274 76.3866 67.173 76.3712C67.0749 76.3565 66.9965 76.3429 66.9378 76.3305L65.3796 75.9993L64.909 78.2133L63.8482 77.9878ZM65.5901 75.0089L67.1043 75.3307C67.163 75.3432 67.2297 75.3543 67.3043 75.364C67.3789 75.3738 67.4489 75.3764 67.5142 75.3719C67.6997 75.3653 67.8541 75.3168 67.9776 75.2265C68.104 75.1368 68.2027 75.0259 68.2737 74.8938C68.3477 74.7623 68.399 74.6291 68.4277 74.4941C68.4564 74.3591 68.4637 74.2165 68.4496 74.0663C68.4391 73.9138 68.3943 73.7708 68.3153 73.6375C68.2393 73.5048 68.1179 73.3977 67.9512 73.3163C67.8933 73.2856 67.828 73.261 67.7552 73.2424C67.6831 73.221 67.6177 73.204 67.559 73.1915L66.0449 72.8697L65.5901 75.0089Z" fill="#1B1B1B"/>
<path id="Vector_12" d="M55.5456 76.2229L58.8912 70.3093L60.445 70.6396L61.0961 77.4027L60.0045 77.1707L59.3998 71.0983L59.6375 71.1488L56.6372 76.4549L55.5456 76.2229ZM56.9511 75.0863L57.1617 74.0959L60.4893 74.8032L60.2788 75.7936L56.9511 75.0863Z" fill="#1B1B1B"/>
<path id="Vector_13" d="M48.8455 74.7988L50.1927 68.4604L52.8117 69.0171C52.8734 69.0302 52.952 69.05 53.0476 69.0765C53.1438 69.1 53.2314 69.1278 53.3104 69.1599C53.6654 69.2937 53.9418 69.4797 54.1395 69.718C54.3402 69.957 54.4673 70.2324 54.5206 70.5443C54.5774 70.8539 54.5688 71.1833 54.4945 71.5325C54.4209 71.8787 54.2949 72.1832 54.1164 72.4458C53.9385 72.7055 53.7093 72.9037 53.4288 73.0403C53.1511 73.1776 52.8245 73.2355 52.4488 73.2139C52.3641 73.2081 52.2713 73.1976 52.1702 73.1823C52.0722 73.1676 51.9938 73.154 51.9351 73.1415L50.3769 72.8103L49.9063 75.0243L48.8455 74.7988ZM50.5874 71.8199L52.1016 72.1418C52.1603 72.1542 52.2269 72.1653 52.3015 72.1751C52.3761 72.1848 52.4461 72.1874 52.5115 72.1829C52.6969 72.1763 52.8514 72.1278 52.9748 72.0375C53.1012 71.9479 53.1999 71.837 53.271 71.7048C53.3449 71.5733 53.3962 71.4401 53.4249 71.3051C53.4536 71.1701 53.4609 71.0275 53.4469 70.8773C53.4363 70.7248 53.3916 70.5819 53.3126 70.4485C53.2365 70.3158 53.1151 70.2087 52.9484 70.1273C52.8905 70.0966 52.8252 70.072 52.7525 70.0535C52.6804 70.032 52.615 70.015 52.5563 70.0026L51.0421 69.6807L50.5874 71.8199Z" fill="#1B1B1B"/>
</g>
<g id="you cover &#194;&#163;4.95 P&#38;P">
<path id="Vector_14" d="M116.018 98.4604L117.255 92.6404L119.558 93.1299C119.863 93.1947 120.121 93.3279 120.333 93.5294C120.545 93.7308 120.695 93.9799 120.783 94.2766C120.872 94.5678 120.881 94.8769 120.812 95.2039C120.739 95.5475 120.601 95.8399 120.399 96.0808C120.199 96.3162 119.959 96.4884 119.681 96.5973C119.404 96.7007 119.114 96.72 118.809 96.6552L117.154 96.3035L116.666 98.5982L116.018 98.4604ZM117.288 95.6716L118.976 96.0303C119.148 96.0669 119.311 96.0494 119.465 95.9779C119.626 95.902 119.767 95.787 119.886 95.6329C120.007 95.4732 120.092 95.2797 120.14 95.0524C120.184 94.8473 120.181 94.6556 120.132 94.4772C120.084 94.2932 120.001 94.1394 119.882 94.0157C119.771 93.8877 119.629 93.8054 119.457 93.7689L117.769 93.4101L117.288 95.6716Z" fill="#1B1B1B" fill-opacity="0.75"/>
<path id="Vector_15" d="M113.991 98.0295L113.481 97.1998L113.375 97.0035L112.191 94.9703C112.06 94.7398 111.946 94.5273 111.848 94.3327C111.751 94.1381 111.673 93.9594 111.615 93.7964C111.557 93.6335 111.52 93.4807 111.504 93.3383C111.488 93.1958 111.494 93.0553 111.524 92.9168C111.585 92.6285 111.711 92.3889 111.902 92.1978C112.1 92.0023 112.34 91.868 112.622 91.7947C112.91 91.7226 113.22 91.7219 113.553 91.7926C113.813 91.8479 114.042 91.9429 114.239 92.0776C114.437 92.2122 114.596 92.3764 114.717 92.5701C114.838 92.7638 114.912 92.9737 114.939 93.1996L114.382 93.4113C114.327 93.0983 114.221 92.8614 114.064 92.7006C113.912 92.541 113.701 92.4323 113.429 92.3746C113.213 92.3286 113.02 92.3252 112.849 92.3642C112.68 92.3978 112.54 92.4694 112.43 92.5792C112.319 92.6891 112.244 92.841 112.202 93.035C112.174 93.168 112.178 93.3136 112.214 93.4719C112.251 93.6246 112.304 93.7836 112.373 93.9489C112.449 94.1099 112.529 94.2631 112.614 94.4086C112.699 94.5541 112.775 94.6862 112.843 94.8048L113.903 96.6464L114.063 96.9151L114.831 98.208L113.991 98.0295ZM111.762 97.6425C111.346 97.5542 110.992 97.3949 110.699 97.1646C110.407 96.9288 110.197 96.6496 110.069 96.3268C109.941 96.0041 109.914 95.6653 109.989 95.3106C110.079 94.8893 110.277 94.5433 110.584 94.2725C110.896 94.0028 111.303 93.8316 111.805 93.7587L112.104 94.3174C111.707 94.3316 111.385 94.4283 111.138 94.6076C110.897 94.788 110.741 95.0446 110.67 95.3771C110.615 95.6376 110.635 95.8852 110.73 96.1197C110.826 96.3487 110.984 96.5473 111.203 96.7156C111.422 96.8838 111.687 97.0009 111.997 97.0669C112.274 97.1258 112.538 97.1267 112.787 97.0697C113.043 97.0139 113.279 96.9078 113.498 96.7515C113.722 96.5964 113.919 96.3948 114.087 96.1468C114.261 95.9 114.409 95.6128 114.531 95.2853L115.146 95.416C115.03 95.7447 114.886 96.0414 114.714 96.3061C114.542 96.5707 114.348 96.8018 114.132 96.9992C113.922 97.1979 113.691 97.3574 113.439 97.4777C113.189 97.5925 112.921 97.666 112.636 97.6981C112.358 97.7259 112.067 97.7073 111.762 97.6425Z" fill="#1B1B1B" fill-opacity="0.75"/>
<path id="Vector_16" d="M104.878 96.0924L106.115 90.2725L108.418 90.762C108.723 90.8268 108.982 90.9599 109.194 91.1614C109.406 91.3629 109.556 91.612 109.643 91.9087C109.732 92.1999 109.741 92.5089 109.672 92.836C109.599 93.1796 109.461 93.4719 109.26 93.7129C109.059 93.9483 108.82 94.1205 108.542 94.2294C108.265 94.3328 107.974 94.352 107.669 94.2872L106.014 93.9355L105.527 96.2303L104.878 96.0924ZM106.149 93.3037L107.836 93.6624C108.008 93.6989 108.171 93.6815 108.326 93.61C108.487 93.5341 108.627 93.4191 108.747 93.2649C108.867 93.1052 108.952 92.9118 109 92.6845C109.044 92.4794 109.041 92.2877 108.992 92.1093C108.944 91.9253 108.861 91.7715 108.743 91.6478C108.631 91.5197 108.489 91.4375 108.317 91.4009L106.629 91.0422L106.149 93.3037Z" fill="#1B1B1B" fill-opacity="0.75"/>
<path id="Vector_17" d="M99.0903 94.9231C98.7079 94.8418 98.3797 94.6823 98.1058 94.4445C97.8332 94.2011 97.629 93.8941 97.4934 93.5235L97.9743 93.1825C98.1412 93.5424 98.328 93.8081 98.5349 93.9795C98.7485 94.1466 98.98 94.2566 99.2294 94.3096C99.4955 94.3662 99.7496 94.3564 99.9917 94.2805C100.24 94.2001 100.451 94.0682 100.623 93.8846C100.796 93.7011 100.909 93.4818 100.963 93.2269C101.016 92.9774 101.005 92.7406 100.931 92.5163C100.859 92.2865 100.735 92.0922 100.56 91.9333C100.386 91.769 100.169 91.6591 99.9089 91.6038C99.7703 91.5743 99.6282 91.5615 99.4825 91.5653C99.3381 91.5635 99.184 91.58 99.0202 91.6147C98.8631 91.6451 98.6914 91.6897 98.5051 91.7486L98.2435 91.1803L99.1093 88.7834L102.252 89.4514L102.123 90.0583L99.3212 89.4628L99.5608 89.3573L98.8202 91.3289L98.6573 91.1552C98.7613 91.102 98.8952 91.0581 99.059 91.0234C99.2228 90.9887 99.3975 90.9708 99.5831 90.9697C99.7754 90.9642 99.9575 90.9797 100.129 91.0162C100.49 91.0928 100.793 91.2443 101.041 91.4707C101.289 91.6915 101.466 91.9637 101.571 92.2873C101.677 92.6053 101.691 92.95 101.612 93.3214C101.529 93.7094 101.364 94.0391 101.115 94.3107C100.867 94.5766 100.566 94.7675 100.211 94.8833C99.8575 94.9935 99.4839 95.0068 99.0903 94.9231Z" fill="#1B1B1B" fill-opacity="0.75"/>
<path id="Vector_18" d="M94.5066 93.8881L94.491 93.7979L96.9364 90.6331L96.9098 91.0446C96.7577 91.215 96.602 91.3615 96.4427 91.4841C96.2846 91.6011 96.1201 91.6936 95.9492 91.7615C95.7839 91.8307 95.615 91.8759 95.4425 91.8971C95.2711 91.9129 95.0995 91.9025 94.9277 91.8659C94.5951 91.7952 94.3085 91.6445 94.0679 91.4138C93.8328 91.1842 93.6622 90.9104 93.556 90.5924C93.4553 90.2756 93.4415 89.9453 93.5146 89.6016C93.5959 89.2192 93.7576 88.8944 93.9998 88.6272C94.242 88.3601 94.5337 88.173 94.8751 88.066C95.2177 87.9534 95.5746 87.9366 95.946 88.0155C96.2231 88.0744 96.4675 88.1785 96.6791 88.3277C96.8962 88.4782 97.0746 88.6609 97.2143 88.876C97.3595 89.0923 97.4567 89.3302 97.5058 89.5897C97.5561 89.8437 97.5524 90.1065 97.4946 90.3781C97.4605 90.5389 97.4006 90.7115 97.315 90.8961C97.2361 91.0763 97.1349 91.2662 97.0114 91.4659C96.889 91.66 96.7532 91.8629 96.604 92.0745C96.4547 92.2861 96.296 92.5015 96.1277 92.7206L95.1301 94.0206L94.5066 93.8881ZM95.1998 91.2807C95.4492 91.3337 95.6861 91.3233 95.9104 91.2493C96.1358 91.1697 96.328 91.0426 96.4868 90.8678C96.6456 90.693 96.7509 90.4836 96.8028 90.2397C96.8558 89.9903 96.8459 89.7507 96.7731 89.5209C96.7058 89.2922 96.5848 89.0985 96.41 88.9397C96.2352 88.7809 96.0231 88.6749 95.7736 88.6219C95.5298 88.5701 95.2985 88.5817 95.0797 88.6569C94.861 88.7321 94.6722 88.8571 94.5134 89.0319C94.3601 89.2078 94.2564 89.4233 94.2022 89.6783C94.1503 89.9222 94.1586 90.1557 94.2271 90.3788C94.3011 90.6031 94.4221 90.7968 94.5902 90.96C94.7583 91.1231 94.9615 91.2301 95.1998 91.2807Z" fill="#1B1B1B" fill-opacity="0.75"/>
<path id="Vector_19" d="M91.4331 93.3216C91.2834 93.2898 91.1764 93.2207 91.1122 93.1143C91.0534 93.0092 91.0417 92.8734 91.077 92.7071C91.1089 92.5575 91.1763 92.4444 91.2795 92.3678C91.3894 92.2869 91.5136 92.2612 91.6522 92.2906C91.8019 92.3224 91.9055 92.3937 91.9631 92.5044C92.0273 92.6108 92.0424 92.7443 92.0082 92.9051C91.9753 93.0603 91.9044 93.1756 91.7957 93.2509C91.6925 93.3275 91.5716 93.351 91.4331 93.3216Z" fill="#1B1B1B" fill-opacity="0.75"/>
<path id="Vector_20" d="M88.5065 92.6126L89.5792 87.5659L89.7498 87.6629L86.713 90.0937L86.6783 89.9299L90.6193 90.7676L90.4885 91.3828L86.3064 90.4939L86.1296 89.8132L89.8683 86.8191L90.3755 86.9269L89.1384 92.7469L88.5065 92.6126Z" fill="#1B1B1B" fill-opacity="0.75"/>
<path id="Vector_21" d="M82.2177 90.7978L81.756 90.5172C81.8486 90.4905 81.9387 90.4344 82.0264 90.3487C82.1153 90.2576 82.1945 90.144 82.2639 90.0082C82.3334 89.8723 82.3846 89.7268 82.4176 89.5716C82.434 89.494 82.445 89.4152 82.4504 89.3352C82.4614 89.2565 82.4685 89.1682 82.4719 89.0704C82.4765 88.9671 82.4724 88.8504 82.4595 88.7202C82.4521 88.5912 82.4384 88.4376 82.4183 88.2596C82.3978 88.0293 82.385 87.8441 82.38 87.704C82.3762 87.5583 82.3766 87.4339 82.3812 87.3305C82.3913 87.2284 82.4058 87.133 82.4247 87.0443C82.5001 86.6896 82.6409 86.3951 82.8471 86.1608C83.0533 85.9266 83.3047 85.7657 83.6014 85.6781C83.8993 85.585 84.2311 85.5774 84.597 85.6551C84.9517 85.7305 85.2458 85.8596 85.4792 86.0425C85.7193 86.221 85.8796 86.4347 85.9599 86.6835L85.3999 86.9468C85.3372 86.806 85.2547 86.69 85.1524 86.5987C85.0557 86.5086 84.9465 86.4362 84.8249 86.3814C84.7101 86.3222 84.5944 86.2803 84.478 86.2555C84.2452 86.206 84.029 86.2151 83.8292 86.2827C83.6306 86.3448 83.4598 86.4533 83.3168 86.6083C83.1793 86.7645 83.0864 86.9562 83.0381 87.1834C82.9993 87.3663 82.9857 87.5662 82.9976 87.7831C83.0161 87.9956 83.0343 88.1964 83.052 88.3856C83.0721 88.5636 83.0892 88.7556 83.1034 88.9613C83.1188 89.1616 83.1088 89.3448 83.0735 89.5111C83.0393 89.6719 82.9885 89.8291 82.9211 89.9827C82.8536 90.1364 82.7619 90.282 82.6457 90.4195C82.5296 90.5571 82.3869 90.6832 82.2177 90.7978ZM84.0978 91.8057C83.9481 91.7739 83.7871 91.7136 83.6148 91.6249C83.4413 91.5416 83.2845 91.462 83.1442 91.3858C83.0713 91.3471 82.9852 91.3028 82.8858 91.2527C82.7875 91.197 82.6853 91.1463 82.5792 91.1006C82.4786 91.056 82.3867 91.0249 82.3036 91.0073C82.1373 90.9719 81.9518 90.9586 81.7472 90.9672C81.5482 90.977 81.3434 91.0001 81.1329 91.0365L80.9676 90.506C81.1962 90.4388 81.4396 90.3978 81.6976 90.3831C81.9612 90.3696 82.2287 90.3917 82.5003 90.4495C82.6334 90.4777 82.7629 90.5227 82.8888 90.5842C83.0215 90.6414 83.2037 90.738 83.4355 90.8742C83.5634 90.9535 83.6898 91.0267 83.8146 91.0938C83.9461 91.1565 84.0811 91.2026 84.2197 91.2321C84.3638 91.2627 84.5132 91.2684 84.6679 91.2491C84.8227 91.2299 84.9849 91.189 85.1546 91.1266L85.4083 91.6498C85.2193 91.7487 85.009 91.8112 84.7776 91.8373C84.5516 91.8645 84.325 91.854 84.0978 91.8057ZM81.5201 88.2338L81.6367 87.685L84.9458 88.3884L84.8292 88.9371L81.5201 88.2338Z" fill="#1B1B1B" fill-opacity="0.75"/>
<path id="Vector_22" d="M75.6993 89.8902L76.6218 85.5502L77.2453 85.6827L77.0163 86.842L76.9834 86.6698C77.0856 86.4888 77.2209 86.3293 77.3893 86.1913C77.5632 86.0544 77.755 85.9562 77.9646 85.8965C78.1743 85.8367 78.3927 85.831 78.62 85.8793C78.7142 85.8994 78.8011 85.9265 78.8808 85.9608C78.9615 85.9896 79.0273 86.021 79.078 86.0549L78.755 86.7162C78.69 86.6676 78.6199 86.6295 78.5446 86.602C78.4761 86.57 78.4086 86.547 78.3421 86.5328C78.1536 86.4928 77.9775 86.4901 77.8137 86.5248C77.6499 86.5595 77.5024 86.6266 77.3711 86.7262C77.2411 86.8202 77.1318 86.9389 77.0434 87.0823C76.955 87.2258 76.892 87.3862 76.8542 87.5635L76.3311 90.0245L75.6993 89.8902Z" fill="#1B1B1B" fill-opacity="0.75"/>
<path id="Vector_23" d="M72.9252 89.3876C72.4929 89.2957 72.1277 89.1196 71.8296 88.8593C71.5371 88.6002 71.3326 88.2815 71.216 87.9033C71.0994 87.5252 71.0876 87.1171 71.1807 86.6792C71.2526 86.3411 71.37 86.0475 71.5331 85.7983C71.6973 85.5435 71.8954 85.3336 72.1275 85.1686C72.3651 85.0047 72.6287 84.8957 72.9183 84.8413C73.2091 84.7815 73.5097 84.7846 73.8201 84.8505C74.1138 84.913 74.3687 85.0222 74.5847 85.1782C74.8062 85.3353 74.9828 85.5264 75.1146 85.7514C75.2531 85.972 75.3396 86.2192 75.374 86.493C75.4085 86.7668 75.3878 87.055 75.312 87.3575L75.2418 87.6467L71.6251 86.878L71.645 86.3347L74.8792 87.0222L74.6995 87.1317L74.7419 86.9322C74.7733 86.7303 74.7557 86.5267 74.6893 86.3214C74.624 86.1106 74.5068 85.9263 74.3375 85.7687C74.1738 85.6122 73.9589 85.5057 73.6928 85.4492C73.3824 85.3832 73.1001 85.3898 72.8457 85.469C72.5925 85.5426 72.3791 85.6884 72.2053 85.9064C72.0315 86.1243 71.9063 86.4135 71.8297 86.7738C71.7567 87.1174 71.7596 87.4309 71.8384 87.7141C71.9184 87.9918 72.0656 88.2259 72.2801 88.4163C72.5 88.6079 72.7846 88.7408 73.1338 88.815C73.3389 88.8586 73.5483 88.8683 73.762 88.8442C73.9824 88.8158 74.2363 88.7249 74.5238 88.5717L74.7526 89.0896C74.598 89.1899 74.4215 89.2712 74.2229 89.3332C74.0255 89.3898 73.815 89.4261 73.5914 89.4423C73.369 89.453 73.1469 89.4348 72.9252 89.3876Z" fill="#1B1B1B" fill-opacity="0.75"/>
<path id="Vector_24" d="M68.0255 88.2594L67.1189 83.5305L67.809 83.6772L68.501 87.5349L68.3153 87.591L70.6774 84.2869L71.3425 84.4283L68.4745 88.3548L68.0255 88.2594Z" fill="#1B1B1B" fill-opacity="0.75"/>
<path id="Vector_25" d="M63.6531 87.4167C63.2207 87.3248 62.8561 87.146 62.5592 86.8801C62.2679 86.6154 62.0618 86.2906 61.9408 85.9057C61.8254 85.522 61.8142 85.1112 61.9073 84.6733C61.9992 84.241 62.1753 83.8758 62.4356 83.5777C62.7015 83.2808 63.0213 83.0708 63.3951 82.9474C63.7745 82.8253 64.1803 82.8102 64.6127 82.9021C65.0395 82.9928 65.3985 83.1705 65.6899 83.4352C65.9868 83.7011 66.1935 84.0231 66.3101 84.4013C66.4322 84.7806 66.4473 85.1865 66.3554 85.6188C66.2624 86.0567 66.0823 86.4268 65.8152 86.7293C65.5537 87.0328 65.2333 87.2457 64.854 87.3678C64.4802 87.4912 64.0799 87.5074 63.6531 87.4167ZM63.7785 86.8264C64.0834 86.8912 64.3703 86.8769 64.6393 86.7834C64.9094 86.6844 65.1375 86.5244 65.3236 86.3032C65.5108 86.0765 65.6386 85.8024 65.7069 85.4809C65.7753 85.1595 65.7694 84.8599 65.6894 84.5822C65.6094 84.3045 65.4649 84.071 65.2561 83.8818C65.0483 83.687 64.7921 83.5572 64.4872 83.4924C64.1823 83.4276 63.8927 83.4413 63.6181 83.5336C63.3504 83.6215 63.1201 83.7782 62.9273 84.0038C62.7413 84.2249 62.6174 84.494 62.5558 84.8112C62.4819 85.1315 62.4844 85.4332 62.5632 85.7165C62.6488 85.9954 62.7948 86.235 63.0014 86.4353C63.2146 86.6312 63.4737 86.7616 63.7785 86.8264Z" fill="#1B1B1B" fill-opacity="0.75"/>
<path id="Vector_26" d="M59.1853 86.4671C58.7751 86.3799 58.4299 86.2052 58.1496 85.9428C57.8706 85.675 57.6727 85.3519 57.5561 84.9738C57.4463 84.5912 57.4373 84.1838 57.5292 83.7515C57.6211 83.3191 57.7944 82.9533 58.0492 82.6541C58.3107 82.3505 58.6228 82.1359 58.9855 82.0102C59.3483 81.8845 59.7375 81.8659 60.1532 81.9542C60.5246 82.0332 60.8468 82.1799 61.1198 82.3943C61.394 82.6032 61.5949 82.8574 61.7225 83.1568L61.2612 83.528C61.1853 83.367 61.0838 83.218 60.9565 83.0809C60.8348 82.9449 60.6939 82.831 60.5338 82.739C60.3805 82.6427 60.2207 82.5769 60.0544 82.5415C59.7607 82.4791 59.4815 82.498 59.2169 82.5981C58.9534 82.6928 58.7259 82.8501 58.5343 83.07C58.3483 83.2912 58.2211 83.5625 58.1528 83.884C58.0844 84.2055 58.0897 84.5078 58.1685 84.7911C58.2541 85.07 58.3979 85.3062 58.6001 85.4998C58.8023 85.6934 59.0475 85.8208 59.3357 85.8821C59.502 85.9174 59.6708 85.9273 59.8421 85.9115C60.0147 85.8903 60.1836 85.8451 60.3489 85.7759C60.5142 85.7068 60.6738 85.6104 60.8275 85.4866L61.0979 86.0134C60.8564 86.2227 60.5618 86.3687 60.2141 86.4512C59.8663 86.5337 59.5234 86.539 59.1853 86.4671Z" fill="#1B1B1B" fill-opacity="0.75"/>
<path id="Vector_27" d="M51.7248 84.8813C51.3923 84.8106 51.1237 84.684 50.9192 84.5015C50.7214 84.3146 50.5892 84.078 50.5226 83.7915C50.4616 83.5063 50.4723 83.1696 50.5548 82.7816L51.1186 80.1294L51.7504 80.2637L51.2132 82.7912C51.1508 83.085 51.1371 83.3399 51.1723 83.5559C51.2142 83.7676 51.3049 83.9404 51.4445 84.0744C51.5896 84.2095 51.7813 84.3024 52.0196 84.353C52.2025 84.3919 52.3781 84.3974 52.5462 84.3694C52.7156 84.3358 52.8702 84.276 53.0102 84.1899C53.1501 84.1038 53.2693 83.993 53.3676 83.8575C53.4659 83.7219 53.5328 83.571 53.5681 83.4048L54.1283 80.7691L54.7519 80.9017L53.8294 85.2417L53.2141 85.1109L53.3836 84.1911L53.494 84.1624C53.3862 84.3423 53.2377 84.4961 53.0483 84.6238C52.8601 84.746 52.6479 84.8313 52.4117 84.8796C52.181 84.929 51.9521 84.9296 51.7248 84.8813Z" fill="#1B1B1B" fill-opacity="0.75"/>
<path id="Vector_28" d="M47.0571 83.8891C46.6247 83.7972 46.2601 83.6184 45.9632 83.3525C45.6719 83.0878 45.4657 82.763 45.3448 82.3781C45.2294 81.9944 45.2182 81.5836 45.3113 81.1457C45.4032 80.7134 45.5793 80.3482 45.8396 80.0501C46.1055 79.7533 46.4253 79.5432 46.7991 79.4199C47.1785 79.2977 47.5843 79.2826 48.0167 79.3745C48.4435 79.4652 48.8025 79.6429 49.0939 79.9076C49.3907 80.1735 49.5975 80.4955 49.7141 80.8737C49.8362 81.253 49.8513 81.6589 49.7594 82.0912C49.6663 82.5291 49.4863 82.8992 49.2192 83.2017C48.9577 83.5053 48.6373 83.7181 48.258 83.8403C47.8842 83.9636 47.4839 83.9799 47.0571 83.8891ZM47.1825 83.2988C47.4874 83.3636 47.7743 83.3493 48.0433 83.2559C48.3134 83.1569 48.5415 82.9968 48.7276 82.7756C48.9148 82.5489 49.0426 82.2748 49.1109 81.9534C49.1792 81.6319 49.1734 81.3323 49.0934 81.0546C49.0134 80.7769 48.8689 80.5434 48.66 80.3542C48.4523 80.1594 48.1961 80.0296 47.8912 79.9648C47.5863 79.9 47.2967 79.9138 47.0221 80.006C46.7543 80.0939 46.5241 80.2506 46.3313 80.4762C46.1452 80.6973 46.0214 80.9665 45.9598 81.2836C45.8859 81.6039 45.8884 81.9057 45.9672 82.1889C46.0528 82.4678 46.1988 82.7074 46.4054 82.9077C46.6186 83.1037 46.8777 83.234 47.1825 83.2988Z" fill="#1B1B1B" fill-opacity="0.75"/>
<path id="Vector_29" d="M40.9974 84.513L42.2719 82.6462L42.2046 83.2489L41.046 77.9885L41.7527 78.1387L42.5341 81.7808C42.5595 81.8789 42.5815 81.9936 42.5999 82.125C42.6195 82.2508 42.6364 82.3761 42.6504 82.5007L42.4229 82.4263C42.4817 82.3403 42.5384 82.251 42.5929 82.1583C42.6529 82.0667 42.7095 81.9774 42.7628 81.8902L44.7874 78.7838L45.5024 78.9358L42.8256 82.9029L41.6709 84.6561L40.9974 84.513Z" fill="#1B1B1B" fill-opacity="0.75"/>
</g>
</g>
</g>
</g>
</g>
</g>
<defs>
<filter id="filter0_d_194_2029" x="0" y="0" width="167.35" height="167.35" filterUnits="userSpaceOnUse" color-interpolation-filters="sRGB">
<feFlood flood-opacity="0" result="BackgroundImageFix"/>
<feColorMatrix in="SourceAlpha" type="matrix" values="0 0 0 0 0 0 0 0 0 0 0 0 0 0 0 0 0 0 127 0" result="hardAlpha"/>
<feMorphology radius="6" operator="erode" in="SourceAlpha" result="effect1_dropShadow_194_2029"/>
<feOffset dy="10"/>
<feGaussianBlur stdDeviation="14"/>
<feColorMatrix type="matrix" values="0 0 0 0 0.768 0 0 0 0 0.611 0 0 0 0 0.376 0 0 0 0.45 0"/>
<feBlend mode="normal" in2="BackgroundImageFix" result="effect1_dropShadow_194_2029"/>
<feBlend mode="normal" in="SourceGraphic" in2="effect1_dropShadow_194_2029" result="shape"/>
</filter>
<radialGradient id="paint0_radial_194_2029" cx="0" cy="0" r="1" gradientUnits="userSpaceOnUse" gradientTransform="translate(95.6228 64) scale(65)">
<stop stop-color="#E7C489"/>
<stop offset="1" stop-color="#A68B60"/>
</radialGradient>
</defs>
</svg>
