<svg preserveAspectRatio="none" overflow="visible" style="display: block;" width="264.516" height="51.3682" viewBox="0 0 264.516 51.3682" fill="none" xmlns="http://www.w3.org/2000/svg">
<g id="skip-label (Stroke)">
<path id="Stroke" d="M223.328 2.08887V12.2881H237.472V49.6885H249.032V12.2881H263.516V2.08887H223.328ZM264.516 13.2881H250.032V50.6885H236.472V13.2881H222.328V1.08887H264.516V13.2881Z" fill="#BCBCBC" fill-opacity="0.38"/>
<path id="Stroke_2" d="M190.865 2.08887V11.8125H198.889V39.9648H190.865V49.6885H218.541V39.9648H210.449V11.8125H218.541V2.08887H190.865ZM219.541 12.8125H211.449V38.9648H219.541V50.6885H189.865V38.9648H197.889V12.8125H189.865V1.08887H219.541V12.8125Z" fill="#BCBCBC" fill-opacity="0.38"/>
<path id="Stroke_3" d="M128.812 1.08887H150.349V2.08887H129.812V49.6885H141.372V33.7764H150.349L150.905 33.7686C153.67 33.6862 156.137 32.9865 158.305 31.6689C160.662 30.2636 162.52 28.3587 163.88 25.9561C165.285 23.5081 165.988 20.7428 165.988 17.6602C165.988 14.7136 165.285 12.0613 163.88 9.7041C162.52 7.34714 160.662 5.48879 158.305 4.12891C156.137 2.8539 153.67 2.17636 150.905 2.09668L150.349 2.08887V1.08887C153.498 1.08891 156.329 1.80612 158.812 3.2666H158.811C161.313 4.71162 163.292 6.69113 164.738 9.19238H164.739C166.244 11.7159 166.988 14.5471 166.988 17.6602C166.988 20.8986 166.248 23.8364 164.75 26.4482C163.306 28.9987 161.327 31.028 158.823 32.5225C156.339 34.0327 153.504 34.7763 150.349 34.7764H142.372V50.6885H128.812V1.08887ZM153.156 17.8643C153.156 16.827 152.937 16.0197 152.555 15.3936C152.195 14.8053 151.743 14.3404 151.192 13.9873L150.95 13.8428C150.375 13.5234 149.739 13.338 149.026 13.2969L148.717 13.2881H142.168V22.6445H148.717V23.6445H141.168V12.2881H148.717C149.714 12.2882 150.621 12.5155 151.437 12.9688C152.252 13.422 152.91 14.0563 153.408 14.8721C153.907 15.688 154.156 16.6857 154.156 17.8643C154.156 18.9976 153.907 19.9951 153.408 20.8564C152.91 21.7177 152.252 22.3978 151.437 22.8965L151.126 23.0723C150.392 23.4539 149.589 23.6445 148.717 23.6445V22.6445C149.538 22.6445 150.263 22.4414 150.915 22.043C151.583 21.6348 152.124 21.0786 152.543 20.3555C152.942 19.6665 153.156 18.8465 153.156 17.8643Z" fill="#BCBCBC" fill-opacity="0.38"/>
<path id="Stroke_4" d="M93.542 2.08887V11.8125H101.565V39.9648H93.542V49.6885H121.218V39.9648H113.126V11.8125H121.218V2.08887H93.542ZM122.218 12.8125H114.126V38.9648H122.218V50.6885H92.542V38.9648H100.565V12.8125H92.542V1.08887H122.218V12.8125Z" fill="#BCBCBC" fill-opacity="0.38"/>
<path id="Stroke_5" d="M46.624 2.08887V49.6885H58.1836V32.6758L61.6406 29.2803L77.1562 49.6885H90.6201L69.0713 21.9824L89.3281 2.08887H75.6602L58.1836 19.8164V2.08887H46.624ZM59.1836 17.377L74.9482 1.38672L75.2412 1.08887H91.7734L70.4072 22.0723L92.665 50.6885H76.6602L61.5312 30.7891L59.1836 33.0957V50.6885H45.624V1.08887H59.1836V17.377Z" fill="#BCBCBC" fill-opacity="0.38"/>
<path id="Stroke_6" d="M8.37012 31.374L9.10742 32.3623C11.3217 35.3295 13.4682 37.226 15.5244 38.1719C17.7097 39.1563 19.9475 39.6445 22.2461 39.6445V40.6445L21.7881 40.6387C19.6536 40.5816 17.5714 40.1248 15.541 39.2695L15.1064 39.0801C12.8399 38.0374 10.5732 35.998 8.30664 32.9609L1.30273 40.916C2.84403 42.8653 4.58881 44.566 6.53809 46.0166C8.48735 47.4219 10.7089 48.5096 13.2021 49.2803C15.7408 50.0056 18.5742 50.3681 21.7021 50.3682C25.3287 50.3682 28.5248 49.7792 31.29 48.6006C34.1007 47.3766 36.3001 45.6309 37.8867 43.3643C39.4166 41.1968 40.2296 38.5909 40.3252 35.5469L40.334 34.9326C40.334 32.802 39.9264 30.9431 39.1104 29.3564C38.3397 27.7245 37.2059 26.3193 35.71 25.1406C34.4407 24.1094 32.9461 23.2165 31.2256 22.4629L30.4746 22.1484C28.4799 21.3324 26.2355 20.6754 23.7422 20.1768C22.6542 19.9954 21.6115 19.7681 20.6143 19.4961C19.617 19.1788 18.7325 18.8162 17.9619 18.4082C17.1915 17.9549 16.5792 17.456 16.126 16.9121C15.6729 16.3682 15.4463 15.7109 15.4463 14.9404C15.4463 14.0791 15.7187 13.354 16.2627 12.7646C16.8067 12.13 17.5549 11.6542 18.5068 11.3369C19.504 10.9743 20.6823 10.792 22.042 10.792C23.3567 10.792 24.6266 10.9963 25.8506 11.4043C27.1199 11.8123 28.2988 12.4022 29.3867 13.1729C30.5199 13.9435 31.5628 14.9182 32.5146 16.0967L39.6543 9.22852C38.521 7.50598 37.1387 6.03254 35.5068 4.80859C34.0193 3.66109 32.2326 2.77211 30.1475 2.14258L29.7266 2.02051C27.5052 1.34051 24.8301 1 21.7021 1C19.3449 1.00002 17.0783 1.36356 14.9023 2.08887L14.4971 2.21973C12.4864 2.89441 10.6945 3.84762 9.12207 5.08008C7.4902 6.34931 6.17602 7.89095 5.17871 9.7041C4.22671 11.4721 3.75 13.4221 3.75 15.5527L3.75391 15.9248C3.79113 17.7732 4.10728 19.4624 4.70215 20.9922C5.33682 22.5789 6.28926 24.007 7.55859 25.2764C8.87318 26.5003 10.5049 27.543 12.4541 28.4043C14.4034 29.2656 16.693 29.9908 19.3223 30.5801C20.2743 30.7614 21.2037 30.9887 22.1104 31.2607C23.017 31.4874 23.8784 31.7819 24.6943 32.1445C25.5103 32.4619 26.2134 32.8244 26.8027 33.2324C27.3918 33.6403 27.8448 34.1164 28.1621 34.6602C28.5247 35.2041 28.706 35.8162 28.7061 36.4961C28.7061 37.4027 28.4346 38.1739 27.8906 38.8086C27.3466 39.3979 26.5755 39.8516 25.5781 40.1689L25.1992 40.2803C24.3017 40.5232 23.3171 40.6445 22.2461 40.6445V39.6445C23.3842 39.6445 24.3911 39.4972 25.2754 39.2158C26.1471 38.9384 26.7456 38.5657 27.1416 38.1426C27.509 37.7076 27.7061 37.1785 27.7061 36.4961C27.706 36.0053 27.5786 35.5877 27.3301 35.2148L27.3135 35.1904L27.2988 35.1641C27.0941 34.8131 26.8037 34.4845 26.4092 34.1826L26.2334 34.0547C25.8489 33.7885 25.3982 33.5371 24.877 33.3037L24.332 33.0762L24.3096 33.0684L24.2881 33.0586C23.7175 32.805 23.1214 32.5859 22.499 32.4023L21.8682 32.2305L21.8232 32.2188C21.1686 32.0224 20.5009 31.8497 19.8203 31.7021L19.1357 31.5625L19.1191 31.5596L19.1035 31.5566C16.7611 31.0316 14.6661 30.3965 12.8242 29.6475L12.0498 29.3193C10.1443 28.4773 8.50466 27.4575 7.14551 26.252L6.87695 26.0088L6.85156 25.9834C5.57634 24.7082 4.59181 23.2741 3.90723 21.6836L3.77344 21.3643L3.77051 21.3545C3.08521 19.5922 2.75003 17.6541 2.75 15.5527C2.75 13.267 3.26263 11.1531 4.29785 9.23047L4.30176 9.22266C5.36462 7.29018 6.76925 5.64399 8.50879 4.29102C10.287 2.89791 12.3225 1.84691 14.6045 1.13379C16.8796 0.377618 19.247 2.41505e-05 21.7021 0C24.887 0 27.6583 0.345246 29.9961 1.05762C32.3651 1.72096 34.4128 2.70177 36.1172 4.0166C37.7303 5.22816 39.1126 6.67039 40.2627 8.34082L40.4902 8.67871L40.9463 9.37305L32.4219 17.5732L31.7363 16.7246C30.9516 15.7531 30.1096 14.9385 29.2119 14.2744L28.8242 13.999L28.8164 13.9941L28.8086 13.9883C27.8038 13.2766 26.7162 12.7332 25.5439 12.3564L25.5342 12.3535C24.4141 11.9802 23.2512 11.792 22.042 11.792C20.7675 11.792 19.7094 11.963 18.8477 12.2764L18.835 12.2812L18.8223 12.2852C18.0078 12.5567 17.4258 12.9434 17.0215 13.415L17.0098 13.4297L16.9971 13.4424C16.6369 13.8326 16.4463 14.3102 16.4463 14.9404C16.4463 15.4293 16.5676 15.8157 16.792 16.1377L16.8945 16.2725C17.2535 16.7032 17.7612 17.1269 18.4453 17.5322C19.1434 17.9005 19.9562 18.2349 20.8887 18.5332C21.6074 18.7289 22.3519 18.9021 23.123 19.0498L23.9072 19.1904L23.9229 19.1924L23.9385 19.1963C26.4801 19.7046 28.7838 20.3773 30.8447 21.2197C32.9623 22.0667 34.7996 23.1121 36.3408 24.3643C37.937 25.6244 39.1618 27.1367 40 28.8994C40.9015 30.6524 41.334 32.6737 41.334 34.9326L41.3242 35.5791C41.2233 38.7859 40.363 41.586 38.7051 43.9365L38.7061 43.9375C37.0025 46.3711 34.6503 48.2282 31.6895 49.5176L31.6826 49.5205C28.7705 50.7617 25.4364 51.3682 21.7021 51.3682C18.6983 51.3681 15.9375 51.0418 13.4268 50.3789L12.9277 50.2422L12.917 50.2393L12.9072 50.2363C10.4807 49.4863 8.28911 48.4419 6.33984 47.0996L5.95312 46.8281L5.94141 46.8184C4.04676 45.4084 2.33899 43.7725 0.819336 41.9121L0.517578 41.5371L0 40.8818L8.37012 31.374Z" fill="#BCBCBC" fill-opacity="0.38"/>
</g>
</svg>
